<?xml version="1.0" standalone="no"?>
<!DOCTYPE svg PUBLIC "-//W3C//DTD SVG 20010904//EN"
 "http://www.w3.org/TR/2001/REC-SVG-20010904/DTD/svg10.dtd">
<svg version="1.0" xmlns="http://www.w3.org/2000/svg"
 width="1280.000000pt" height="1280.000000pt" viewBox="0 0 1280.000000 1280.000000"
 preserveAspectRatio="xMidYMid meet">
<g transform="translate(0.000000,1280.000000) scale(0.100000,-0.100000)"
fill="#000000" stroke="none">
<path d="M6380 11949 c-211 -26 -411 -144 -451 -266 -6 -21 -23 -60 -37 -86
-21 -41 -27 -77 -43 -236 -21 -223 -48 -428 -134 -1016 -35 -242 -78 -546 -95
-675 -16 -129 -33 -246 -36 -260 -5 -24 -6 -24 -17 -5 -7 13 -14 126 -18 305
-13 470 -50 830 -116 1100 -25 102 -123 389 -165 482 -54 120 -162 154 -340
109 -152 -39 -251 -107 -297 -204 -16 -34 -44 -75 -61 -92 -58 -55 -61 -69
-71 -314 -5 -124 -12 -729 -16 -1343 -3 -615 -10 -1118 -14 -1118 -9 0 -16 24
-58 200 -89 375 -112 546 -118 880 -7 360 11 503 92 739 42 124 29 189 -54
264 -63 57 -97 70 -191 75 -143 7 -265 -31 -331 -103 -61 -66 -96 -99 -141
-137 -25 -20 -52 -52 -61 -71 -29 -61 -81 -598 -97 -995 -21 -549 38 -1301
161 -2032 22 -129 113 -604 204 -1055 159 -795 216 -1109 290 -1591 46 -304
47 -290 -11 -297 -142 -16 -235 -219 -235 -516 0 -136 9 -199 42 -304 21 -66
38 -88 110 -138 l22 -15 -38 -130 c-118 -407 -346 -1025 -569 -1538 -31 -72
-56 -135 -56 -141 0 -21 332 -176 567 -266 450 -171 865 -271 1353 -326 222
-25 809 -25 1040 0 384 42 710 99 1085 192 232 57 452 119 462 129 4 3 -26
106 -65 229 -197 613 -344 1246 -345 1482 0 33 34 278 76 545 l75 485 67 185
c36 101 93 248 127 325 154 356 473 948 845 1566 90 149 134 233 143 270 40
170 161 587 231 794 134 398 174 473 364 690 154 174 197 264 211 439 7 79 -7
180 -32 228 -8 15 -46 63 -84 107 -90 101 -136 125 -240 125 -65 0 -89 -6
-180 -43 -129 -52 -257 -120 -329 -174 -123 -92 -284 -269 -485 -535 -115
-152 -272 -332 -290 -332 -23 0 -106 95 -106 120 0 14 55 324 121 690 142 779
135 690 122 1440 -5 283 -6 628 -2 765 6 192 4 262 -6 300 -7 28 -18 72 -24
99 -6 26 -25 67 -40 90 -59 85 -207 175 -326 197 -147 27 -432 -43 -561 -139
-73 -53 -68 -26 -119 -692 -14 -179 -34 -437 -45 -575 -34 -445 -43 -685 -37
-1021 5 -275 4 -324 -9 -343 -8 -11 -22 -21 -31 -21 -14 0 -15 12 -9 98 23
356 27 464 22 602 -6 146 -23 310 -32 319 -2 2 -6 2 -8 0 -2 -2 -16 -155 -30
-339 -15 -184 -29 -336 -32 -339 -11 -12 -22 25 -28 97 -86 1010 -86 2120 0
2754 15 109 14 119 -2 153 -48 101 -276 177 -464 154z"/>
</g>
</svg>
